<svg width="36" height="38" viewBox="0 0 36 38" fill="none" xmlns="http://www.w3.org/2000/svg">
<path d="M18 0.25C8.16275 0.25 0.1875 8.645 0.1875 19C0.1875 29.355 8.16275 37.75 18 37.75C27.8372 37.75 35.8125 29.355 35.8125 19C35.8125 8.645 27.8372 0.25 18 0.25ZM1.82269 21.3044L6.90934 22.6369C6.88737 22.8894 6.866 23.1425 6.866 23.4194C6.86415 25.4795 7.3559 27.5068 8.29575 29.3137L5.73431 30.3275C3.61401 27.7914 2.25313 24.6522 1.82269 21.3044ZM18 36.1875C13.9316 36.1875 10.2094 34.61 7.34694 32.0087L9.47019 31.1556C11.5139 33.7962 14.5776 35.4794 18 35.4794C21.4224 35.4794 24.4861 33.7962 26.5304 31.1556L28.6537 32.0087C25.7918 34.6094 22.0696 36.1875 18 36.1875ZM8.35097 23.4188C8.35097 19.7994 10.5692 19.0725 14.1477 19.0725C14.8038 19.0725 15.4688 19.0963 16.1202 19.1194C17.373 19.1656 18.627 19.1656 19.8798 19.1194C20.5329 19.0963 21.1973 19.0725 21.8522 19.0725C25.432 19.0725 27.6496 19.7994 27.6496 23.4188C27.6496 29.2075 23.3206 33.9169 18 33.9169C12.6794 33.9169 8.35097 29.2075 8.35097 23.4188ZM30.2657 30.3269L27.7043 29.3131C28.6441 27.5061 29.1358 25.4788 29.134 23.4188C29.134 23.1419 29.1132 22.8888 29.0912 22.6362L34.1773 21.3038C33.7479 24.6519 32.3869 27.7914 30.2657 30.3269ZM28.567 20.52C27.1823 17.52 23.5907 17.5106 21.8522 17.5106C21.1807 17.5106 20.4991 17.5344 19.8299 17.5588C18.6108 17.6038 17.3904 17.6038 16.1713 17.5588C15.4971 17.5305 14.8225 17.5144 14.1477 17.5106C12.4092 17.5106 8.81825 17.5206 7.43363 20.52L1.67306 19.0212L1.67188 19C1.67188 15.3069 2.78813 11.8844 4.67863 9.07938C4.89653 9.39313 5.25753 9.67 5.41012 9.52938C6.35929 8.68594 7.47344 8.07318 8.67325 7.73473C9.87307 7.39627 11.129 7.34046 12.3517 7.57125C12.696 7.64187 13 6.30812 12.5826 6.22375C10.2569 5.78924 7.86042 6.25925 5.83941 7.54625C8.83191 4.03 13.1734 1.8125 18 1.8125C22.9133 1.8125 27.3237 4.11188 30.3191 7.73812C28.2671 6.3765 25.8062 5.86991 23.418 6.3175C23.0006 6.40188 23.3034 7.73625 23.6478 7.665C26.1225 7.1975 28.6691 7.915 30.5893 9.62313C30.7502 9.77 31.1421 9.45938 31.354 9.12813C33.292 12.0155 34.3311 15.4647 34.3281 19V19.0206L28.567 20.52Z" fill="#DC1E1E"/>
</svg>
